solid Untitled-56fc2950
facet normal 0.6087614290087204 0.7933533402912354 5.951572289249806e-17
  outer loop
    vertex -4.242640687119285 -4.242640687119285 10.0
    vertex -2.9999999999999996 -5.196152422706631 0.0
    vertex -4.242640687119285 -4.242640687119285 0.0
  endloop
endfacet
facet normal 0.6087614290087204 0.7933533402912354 5.951572289249806e-17
  outer loop
    vertex -2.9999999999999996 -5.196152422706631 0.0
    vertex -4.242640687119285 -4.242640687119285 10.0
    vertex -3.0 -5.196152422706631 10.0
  endloop
endfacet
facet normal 0.3826834323650901 0.9238795325112867 8.005752145312111e-17
  outer loop
    vertex -3.0 -5.196152422706631 10.0
    vertex -1.5529142706151242 -5.795554957734409 0.0
    vertex -2.9999999999999996 -5.196152422706631 0.0
  endloop
endfacet
facet normal 0.3826834323650901 0.9238795325112867 8.005752145312111e-17
  outer loop
    vertex -1.5529142706151242 -5.795554957734409 0.0
    vertex -3.0 -5.196152422706631 10.0
    vertex -1.5529142706151244 -5.79555495773441 10.0
  endloop
endfacet
facet normal -0.7933533402912357 0.60876142900872 -5.010927625041246e-17
  outer loop
    vertex 4.2426406871192865 -4.242640687119284 10.0
    vertex 5.196152422706634 -2.999999999999997 0.0
    vertex 4.242640687119286 -4.242640687119286 0.0
  endloop
endfacet
facet normal -0.7933533402912357 0.60876142900872 -5.010927625041246e-17
  outer loop
    vertex 5.196152422706634 -2.999999999999997 0.0
    vertex 4.2426406871192865 -4.242640687119284 10.0
    vertex 5.196152422706635 -2.9999999999999956 10.0
  endloop
endfacet
facet normal -0.6087614290087211 0.7933533402912348 0.0
  outer loop
    vertex -10.60660171779822 10.606601717798206 10.0
    vertex -7.500000000000007 12.990381056766577 5.0
    vertex -10.60660171779822 10.606601717798206 5.0
  endloop
endfacet
facet normal -0.6087614290087211 0.7933533402912348 0.0
  outer loop
    vertex -7.500000000000007 12.990381056766577 5.0
    vertex -10.60660171779822 10.606601717798206 10.0
    vertex -7.500000000000007 12.990381056766577 10.0
  endloop
endfacet
facet normal 0.13052619222005116 0.9914448613738106 0.0
  outer loop
    vertex -2.7554552980815448e-15 15.0 10.0
    vertex 3.882285676537805 14.488887394336027 5.0
    vertex -2.7554552980815448e-15 15.0 5.0
  endloop
endfacet
facet normal 0.13052619222005116 0.9914448613738106 0.0
  outer loop
    vertex 3.882285676537805 14.488887394336027 5.0
    vertex -2.7554552980815448e-15 15.0 10.0
    vertex 3.882285676537805 14.488887394336027 10.0
  endloop
endfacet
facet normal -0.38268343236509034 0.9238795325112865 0.0
  outer loop
    vertex -7.500000000000007 12.990381056766577 10.0
    vertex -3.882285676537823 14.488887394336022 5.0
    vertex -7.500000000000007 12.990381056766577 5.0
  endloop
endfacet
facet normal -0.38268343236509034 0.9238795325112865 0.0
  outer loop
    vertex -3.882285676537823 14.488887394336022 5.0
    vertex -7.500000000000007 12.990381056766577 10.0
    vertex -3.882285676537823 14.488887394336022 10.0
  endloop
endfacet
facet normal -0.13052619222005216 0.9914448613738104 0.0
  outer loop
    vertex -3.882285676537823 14.488887394336022 10.0
    vertex -2.7554552980815448e-15 15.0 5.0
    vertex -3.882285676537823 14.488887394336022 5.0
  endloop
endfacet
facet normal -0.13052619222005216 0.9914448613738104 0.0
  outer loop
    vertex -2.7554552980815448e-15 15.0 5.0
    vertex -3.882285676537823 14.488887394336022 10.0
    vertex -2.7554552980815448e-15 15.0 10.0
  endloop
endfacet
facet normal -0.6087614290087205 0.7933533402912353 -4.5274135501018646e-17
  outer loop
    vertex 3.000000000000003 -5.19615242270663 10.0
    vertex 4.242640687119286 -4.242640687119286 0.0
    vertex 3.000000000000003 -5.196152422706629 0.0
  endloop
endfacet
facet normal -0.6087614290087205 0.7933533402912353 -4.5274135501018646e-17
  outer loop
    vertex 4.242640687119286 -4.242640687119286 0.0
    vertex 3.000000000000003 -5.19615242270663 10.0
    vertex 4.2426406871192865 -4.242640687119284 10.0
  endloop
endfacet
facet normal 0.13052619222005152 0.9914448613738105 3.682929976150779e-17
  outer loop
    vertex -1.5529142706151244 -5.79555495773441 10.0
    vertex 0.0 -6.0 0.0
    vertex -1.5529142706151242 -5.795554957734409 0.0
  endloop
endfacet
facet normal 0.13052619222005152 0.9914448613738105 3.682929976150779e-17
  outer loop
    vertex 0.0 -6.0 0.0
    vertex -1.5529142706151244 -5.79555495773441 10.0
    vertex 0.0 -6.0 10.0
  endloop
endfacet
facet normal 0.3826834323650891 0.9238795325112871 0.0
  outer loop
    vertex 3.882285676537805 14.488887394336027 10.0
    vertex 7.499999999999989 12.990381056766587 5.0
    vertex 3.882285676537805 14.488887394336027 5.0
  endloop
endfacet
facet normal 0.3826834323650891 0.9238795325112871 0.0
  outer loop
    vertex 7.499999999999989 12.990381056766587 5.0
    vertex 3.882285676537805 14.488887394336027 10.0
    vertex 7.499999999999989 12.990381056766587 10.0
  endloop
endfacet
facet normal -0.7933533402912355 0.6087614290087202 0.0
  outer loop
    vertex -10.60660171779822 10.606601717798206 10.0
    vertex -12.990381056766582 7.4999999999999964 5.0
    vertex -12.990381056766582 7.4999999999999964 10.0
  endloop
endfacet
facet normal -0.7933533402912355 0.6087614290087202 0.0
  outer loop
    vertex -12.990381056766582 7.4999999999999964 5.0
    vertex -10.60660171779822 10.606601717798206 10.0
    vertex -10.60660171779822 10.606601717798206 5.0
  endloop
endfacet
facet normal -0.9238795325112867 0.3826834323650898 0.0
  outer loop
    vertex -12.990381056766582 7.4999999999999964 10.0
    vertex -14.488887394336027 3.8822856765378058 5.0
    vertex -14.488887394336027 3.8822856765378058 10.0
  endloop
endfacet
facet normal -0.9238795325112867 0.3826834323650898 0.0
  outer loop
    vertex -14.488887394336027 3.8822856765378058 5.0
    vertex -12.990381056766582 7.4999999999999964 10.0
    vertex -12.990381056766582 7.4999999999999964 5.0
  endloop
endfacet
facet normal -0.9914448613738106 0.13052619222005116 0.0
  outer loop
    vertex -14.488887394336027 3.8822856765378058 10.0
    vertex -15.0 -1.83697019872103e-15 5.0
    vertex -15.0 -1.83697019872103e-15 10.0
  endloop
endfacet
facet normal -0.9914448613738106 0.13052619222005116 0.0
  outer loop
    vertex -15.0 -1.83697019872103e-15 5.0
    vertex -14.488887394336027 3.8822856765378058 10.0
    vertex -14.488887394336027 3.8822856765378058 5.0
  endloop
endfacet
facet normal -0.9914448613738104 -0.13052619222005168 -0.0
  outer loop
    vertex -15.0 -1.83697019872103e-15 10.0
    vertex -14.488887394336025 -3.8822856765378155 5.0
    vertex -14.488887394336025 -3.8822856765378155 10.0
  endloop
endfacet
facet normal -0.9914448613738104 -0.13052619222005168 -0.0
  outer loop
    vertex -14.488887394336025 -3.8822856765378155 5.0
    vertex -15.0 -1.83697019872103e-15 10.0
    vertex -15.0 -1.83697019872103e-15 5.0
  endloop
endfacet
facet normal -0.9238795325112867 -0.3826834323650898 -0.0
  outer loop
    vertex -14.488887394336025 -3.8822856765378155 10.0
    vertex -12.990381056766578 -7.500000000000006 5.0
    vertex -12.990381056766578 -7.500000000000006 10.0
  endloop
endfacet
facet normal -0.9238795325112867 -0.3826834323650898 -0.0
  outer loop
    vertex -12.990381056766578 -7.500000000000006 5.0
    vertex -14.488887394336025 -3.8822856765378155 10.0
    vertex -14.488887394336025 -3.8822856765378155 5.0
  endloop
endfacet
facet normal -0.7933533402912347 -0.6087614290087212 -0.0
  outer loop
    vertex -12.990381056766578 -7.500000000000006 10.0
    vertex -10.606601717798213 -10.606601717798213 5.0
    vertex -10.606601717798213 -10.606601717798213 10.0
  endloop
endfacet
facet normal -0.7933533402912347 -0.6087614290087212 -0.0
  outer loop
    vertex -10.606601717798213 -10.606601717798213 5.0
    vertex -12.990381056766578 -7.500000000000006 10.0
    vertex -12.990381056766578 -7.500000000000006 5.0
  endloop
endfacet
facet normal -0.6087614290087207 -0.7933533402912354 -0.0
  outer loop
    vertex -7.499999999999997 -12.990381056766582 10.0
    vertex -10.606601717798213 -10.606601717798213 5.0
    vertex -7.499999999999997 -12.990381056766582 5.0
  endloop
endfacet
facet normal -0.6087614290087207 -0.7933533402912354 -0.0
  outer loop
    vertex -10.606601717798213 -10.606601717798213 5.0
    vertex -7.499999999999997 -12.990381056766582 10.0
    vertex -10.606601717798213 -10.606601717798213 10.0
  endloop
endfacet
facet normal -0.3826834323650894 -0.923879532511287 -0.0
  outer loop
    vertex -3.8822856765378098 -14.488887394336025 10.0
    vertex -7.499999999999997 -12.990381056766582 5.0
    vertex -3.8822856765378098 -14.488887394336025 5.0
  endloop
endfacet
facet normal -0.3826834323650894 -0.923879532511287 -0.0
  outer loop
    vertex -7.499999999999997 -12.990381056766582 5.0
    vertex -3.8822856765378098 -14.488887394336025 10.0
    vertex -7.499999999999997 -12.990381056766582 10.0
  endloop
endfacet
facet normal -0.13052619222005177 -0.9914448613738105 -0.0
  outer loop
    vertex 9.18485099360515e-16 -15.0 10.0
    vertex -3.8822856765378098 -14.488887394336025 5.0
    vertex 9.18485099360515e-16 -15.0 5.0
  endloop
endfacet
facet normal -0.13052619222005177 -0.9914448613738105 -0.0
  outer loop
    vertex -3.8822856765378098 -14.488887394336025 5.0
    vertex 9.18485099360515e-16 -15.0 10.0
    vertex -3.8822856765378098 -14.488887394336025 10.0
  endloop
endfacet
facet normal 0.13052619222005166 -0.9914448613738104 0.0
  outer loop
    vertex 3.8822856765378146 -14.488887394336025 10.0
    vertex 9.18485099360515e-16 -15.0 5.0
    vertex 3.8822856765378146 -14.488887394336025 5.0
  endloop
endfacet
facet normal 0.13052619222005166 -0.9914448613738104 0.0
  outer loop
    vertex 9.18485099360515e-16 -15.0 5.0
    vertex 3.8822856765378146 -14.488887394336025 10.0
    vertex 9.18485099360515e-16 -15.0 10.0
  endloop
endfacet
facet normal 0.3826834323650901 -0.9238795325112867 0.0
  outer loop
    vertex 7.500000000000002 -12.990381056766578 10.0
    vertex 3.8822856765378146 -14.488887394336025 5.0
    vertex 7.500000000000002 -12.990381056766578 5.0
  endloop
endfacet
facet normal 0.3826834323650901 -0.9238795325112867 0.0
  outer loop
    vertex 3.8822856765378146 -14.488887394336025 5.0
    vertex 7.500000000000002 -12.990381056766578 10.0
    vertex 3.8822856765378146 -14.488887394336025 10.0
  endloop
endfacet
facet normal 0.6087614290087207 -0.7933533402912353 0.0
  outer loop
    vertex 10.606601717798213 -10.606601717798213 10.0
    vertex 7.500000000000002 -12.990381056766578 5.0
    vertex 10.606601717798213 -10.606601717798213 5.0
  endloop
endfacet
facet normal 0.6087614290087207 -0.7933533402912353 0.0
  outer loop
    vertex 7.500000000000002 -12.990381056766578 5.0
    vertex 10.606601717798213 -10.606601717798213 10.0
    vertex 7.500000000000002 -12.990381056766578 10.0
  endloop
endfacet
facet normal 0.7933533402912352 -0.6087614290087208 0.0
  outer loop
    vertex 12.990381056766582 -7.499999999999999 5.0
    vertex 10.606601717798213 -10.606601717798213 10.0
    vertex 10.606601717798213 -10.606601717798213 5.0
  endloop
endfacet
facet normal 0.7933533402912352 -0.6087614290087208 0.0
  outer loop
    vertex 10.606601717798213 -10.606601717798213 10.0
    vertex 12.990381056766582 -7.499999999999999 5.0
    vertex 12.990381056766582 -7.499999999999999 10.0
  endloop
endfacet
facet normal 0.923879532511287 -0.3826834323650894 0.0
  outer loop
    vertex 14.488887394336025 -3.882285676537811 5.0
    vertex 12.990381056766582 -7.499999999999999 10.0
    vertex 12.990381056766582 -7.499999999999999 5.0
  endloop
endfacet
facet normal 0.923879532511287 -0.3826834323650894 0.0
  outer loop
    vertex 12.990381056766582 -7.499999999999999 10.0
    vertex 14.488887394336025 -3.882285676537811 5.0
    vertex 14.488887394336025 -3.882285676537811 10.0
  endloop
endfacet
facet normal 0.9914448613738104 -0.13052619222005174 0.0
  outer loop
    vertex 15.0 0.0 5.0
    vertex 14.488887394336025 -3.882285676537811 10.0
    vertex 14.488887394336025 -3.882285676537811 5.0
  endloop
endfacet
facet normal 0.9914448613738104 -0.13052619222005174 0.0
  outer loop
    vertex 14.488887394336025 -3.882285676537811 10.0
    vertex 15.0 0.0 5.0
    vertex 15.0 0.0 10.0
  endloop
endfacet
facet normal 0.9914448613738105 0.13052619222005205 0.0
  outer loop
    vertex 14.488887394336022 3.882285676537824 5.0
    vertex 15.0 0.0 10.0
    vertex 15.0 0.0 5.0
  endloop
endfacet
facet normal 0.9914448613738105 0.13052619222005205 0.0
  outer loop
    vertex 15.0 0.0 10.0
    vertex 14.488887394336022 3.882285676537824 5.0
    vertex 14.488887394336022 3.882285676537824 10.0
  endloop
endfacet
facet normal 0.9238795325112865 0.3826834323650904 0.0
  outer loop
    vertex 12.990381056766577 7.500000000000007 5.0
    vertex 14.488887394336022 3.882285676537824 10.0
    vertex 14.488887394336022 3.882285676537824 5.0
  endloop
endfacet
facet normal 0.9238795325112865 0.3826834323650904 0.0
  outer loop
    vertex 14.488887394336022 3.882285676537824 10.0
    vertex 12.990381056766577 7.500000000000007 5.0
    vertex 12.990381056766577 7.500000000000007 10.0
  endloop
endfacet
facet normal -0.38268343236509056 0.9238795325112865 2.245367557051523e-17
  outer loop
    vertex 1.5529142706151295 -5.795554957734408 10.0
    vertex 3.000000000000003 -5.196152422706629 0.0
    vertex 1.5529142706151298 -5.795554957734408 0.0
  endloop
endfacet
facet normal -0.38268343236509056 0.9238795325112865 2.245367557051523e-17
  outer loop
    vertex 3.000000000000003 -5.196152422706629 0.0
    vertex 1.5529142706151295 -5.795554957734408 10.0
    vertex 3.000000000000003 -5.19615242270663 10.0
  endloop
endfacet
facet normal -0.1305261922200518 0.9914448613738105 -7.304077323235012e-19
  outer loop
    vertex 0.0 -6.0 10.0
    vertex 1.5529142706151298 -5.795554957734408 0.0
    vertex 0.0 -6.0 0.0
  endloop
endfacet
facet normal -0.1305261922200518 0.9914448613738105 -7.304077323235012e-19
  outer loop
    vertex 1.5529142706151298 -5.795554957734408 0.0
    vertex 0.0 -6.0 10.0
    vertex 1.5529142706151295 -5.795554957734408 10.0
  endloop
endfacet
facet normal -0.9238795325112871 0.382683432365089 3.678507089225385e-17
  outer loop
    vertex 5.196152422706635 -2.9999999999999956 10.0
    vertex 5.79555495773441 -1.5529142706151216 0.0
    vertex 5.196152422706634 -2.999999999999997 0.0
  endloop
endfacet
facet normal -0.9238795325112871 0.382683432365089 3.678507089225385e-17
  outer loop
    vertex 5.79555495773441 -1.5529142706151216 0.0
    vertex 5.196152422706635 -2.9999999999999956 10.0
    vertex 5.79555495773441 -1.5529142706151216 10.0
  endloop
endfacet
facet normal -0.9914448613738105 0.13052619222005166 3.4638076564537284e-17
  outer loop
    vertex 6.0 1.1021821192326177e-15 10.0
    vertex 5.79555495773441 -1.5529142706151216 0.0
    vertex 5.79555495773441 -1.5529142706151216 10.0
  endloop
endfacet
facet normal -0.9914448613738105 0.13052619222005166 3.4638076564537284e-17
  outer loop
    vertex 5.79555495773441 -1.5529142706151216 0.0
    vertex 6.0 1.1021821192326177e-15 10.0
    vertex 6.0 1.0834041467367103e-15 0.0
  endloop
endfacet
facet normal -0.9914448613738105 -0.13052619222005163 -3.5405392337088984e-17
  outer loop
    vertex 6.0 1.1021821192326177e-15 10.0
    vertex 5.79555495773441 1.552914270615129 0.0
    vertex 6.0 1.0834041467367103e-15 0.0
  endloop
endfacet
facet normal -0.9914448613738105 -0.13052619222005163 -3.5405392337088984e-17
  outer loop
    vertex 5.79555495773441 1.552914270615129 0.0
    vertex 6.0 1.1021821192326177e-15 10.0
    vertex 5.795554957734409 1.552914270615129 10.0
  endloop
endfacet
facet normal -0.9238795325112865 -0.38268343236509084 -2.6140873624319372e-17
  outer loop
    vertex 5.196152422706631 3.0000000000000027 10.0
    vertex 5.79555495773441 1.552914270615129 0.0
    vertex 5.795554957734409 1.552914270615129 10.0
  endloop
endfacet
facet normal -0.9238795325112865 -0.38268343236509084 -2.6140873624319372e-17
  outer loop
    vertex 5.79555495773441 1.552914270615129 0.0
    vertex 5.196152422706631 3.0000000000000027 10.0
    vertex 5.19615242270663 3.0000000000000036 0.0
  endloop
endfacet
facet normal -0.7933533402912347 -0.6087614290087212 -1.8021846619935142e-18
  outer loop
    vertex 4.242640687119283 4.242640687119287 10.0
    vertex 5.19615242270663 3.0000000000000036 0.0
    vertex 5.196152422706631 3.0000000000000027 10.0
  endloop
endfacet
facet normal -0.7933533402912347 -0.6087614290087212 -1.8021846619935142e-18
  outer loop
    vertex 5.19615242270663 3.0000000000000036 0.0
    vertex 4.242640687119283 4.242640687119287 10.0
    vertex 4.242640687119283 4.242640687119287 0.0
  endloop
endfacet
facet normal -0.6087614290087202 -0.7933533402912355 -3.0658953777245745e-17
  outer loop
    vertex 4.242640687119283 4.242640687119287 10.0
    vertex 2.9999999999999996 5.196152422706632 0.0
    vertex 4.242640687119283 4.242640687119287 0.0
  endloop
endfacet
facet normal -0.6087614290087202 -0.7933533402912355 -3.0658953777245745e-17
  outer loop
    vertex 2.9999999999999996 5.196152422706632 0.0
    vertex 4.242640687119283 4.242640687119287 10.0
    vertex 2.9999999999999982 5.196152422706632 10.0
  endloop
endfacet
facet normal -0.3826834323650894 -0.9238795325112871 -1.7131576936548006e-17
  outer loop
    vertex 2.9999999999999982 5.196152422706632 10.0
    vertex 1.552914270615122 5.79555495773441 0.0
    vertex 2.9999999999999996 5.196152422706632 0.0
  endloop
endfacet
facet normal -0.3826834323650894 -0.9238795325112871 -1.7131576936548006e-17
  outer loop
    vertex 1.552914270615122 5.79555495773441 0.0
    vertex 2.9999999999999982 5.196152422706632 10.0
    vertex 1.5529142706151222 5.79555495773441 10.0
  endloop
endfacet
facet normal -0.13052619222005146 -0.9914448613738105 1.4608154646469987e-18
  outer loop
    vertex 1.5529142706151222 5.79555495773441 10.0
    vertex -7.222694311578073e-16 6.0 0.0
    vertex 1.552914270615122 5.79555495773441 0.0
  endloop
endfacet
facet normal -0.13052619222005146 -0.9914448613738105 1.4608154646469987e-18
  outer loop
    vertex -7.222694311578073e-16 6.0 0.0
    vertex 1.5529142706151222 5.79555495773441 10.0
    vertex -7.34788079488412e-16 6.0 10.0
  endloop
endfacet
facet normal 0.13052619222005146 -0.9914448613738105 -3.467498460476548e-17
  outer loop
    vertex -7.34788079488412e-16 6.0 10.0
    vertex -1.5529142706151262 5.79555495773441 0.0
    vertex -7.222694311578073e-16 6.0 0.0
  endloop
endfacet
facet normal 0.13052619222005146 -0.9914448613738105 -3.467498460476548e-17
  outer loop
    vertex -1.5529142706151262 5.79555495773441 0.0
    vertex -7.34788079488412e-16 6.0 10.0
    vertex -1.5529142706151262 5.795554957734409 10.0
  endloop
endfacet
facet normal 0.38268343236509034 -0.9238795325112865 -2.5849553365657712e-18
  outer loop
    vertex -1.5529142706151262 5.795554957734409 10.0
    vertex -3.000000000000002 5.19615242270663 0.0
    vertex -1.5529142706151262 5.79555495773441 0.0
  endloop
endfacet
facet normal 0.38268343236509034 -0.9238795325112865 -2.5849553365657712e-18
  outer loop
    vertex -3.000000000000002 5.19615242270663 0.0
    vertex -1.5529142706151262 5.795554957734409 10.0
    vertex -3.000000000000002 5.196152422706631 10.0
  endloop
endfacet
facet normal 0.6087614290087209 -0.7933533402912349 3.727423571234072e-17
  outer loop
    vertex -3.000000000000002 5.196152422706631 10.0
    vertex -4.2426406871192865 4.242640687119284 0.0
    vertex -3.000000000000002 5.19615242270663 0.0
  endloop
endfacet
facet normal 0.6087614290087209 -0.7933533402912349 3.727423571234072e-17
  outer loop
    vertex -4.2426406871192865 4.242640687119284 0.0
    vertex -3.000000000000002 5.196152422706631 10.0
    vertex -4.242640687119286 4.242640687119285 10.0
  endloop
endfacet
facet normal 0.9914448613738105 0.13052619222005166 -7.296509983092026e-17
  outer loop
    vertex -6.000000000000001 -4.523673446081737e-16 0.0
    vertex -5.79555495773441 -1.5529142706151258 10.0
    vertex -5.79555495773441 -1.552914270615126 0.0
  endloop
endfacet
facet normal 0.9914448613738105 0.13052619222005166 -7.296509983092026e-17
  outer loop
    vertex -5.79555495773441 -1.5529142706151258 10.0
    vertex -6.000000000000001 -4.523673446081737e-16 0.0
    vertex -6.0 -3.6739403974420594e-16 10.0
  endloop
endfacet
facet normal 0.9238795325112865 0.38268343236509056 -2.7395304302393326e-17
  outer loop
    vertex -5.79555495773441 -1.552914270615126 0.0
    vertex -5.196152422706631 -3.0000000000000004 10.0
    vertex -5.196152422706631 -3.0000000000000013 0.0
  endloop
endfacet
facet normal 0.9238795325112865 0.38268343236509056 -2.7395304302393326e-17
  outer loop
    vertex -5.196152422706631 -3.0000000000000004 10.0
    vertex -5.79555495773441 -1.552914270615126 0.0
    vertex -5.79555495773441 -1.5529142706151258 10.0
  endloop
endfacet
facet normal 0.7933533402912355 -0.6087614290087202 -2.2043668275864356e-17
  outer loop
    vertex -5.196152422706632 2.9999999999999987 0.0
    vertex -4.242640687119286 4.242640687119285 10.0
    vertex -5.196152422706632 2.9999999999999982 10.0
  endloop
endfacet
facet normal 0.7933533402912355 -0.6087614290087202 -2.2043668275864356e-17
  outer loop
    vertex -4.242640687119286 4.242640687119285 10.0
    vertex -5.196152422706632 2.9999999999999987 0.0
    vertex -4.2426406871192865 4.242640687119284 0.0
  endloop
endfacet
facet normal 0.9238795325112867 -0.38268343236509 2.718007802414953e-17
  outer loop
    vertex -5.196152422706632 2.9999999999999987 0.0
    vertex -5.79555495773441 1.5529142706151238 10.0
    vertex -5.79555495773441 1.5529142706151238 0.0
  endloop
endfacet
facet normal 0.9238795325112867 -0.38268343236509 2.718007802414953e-17
  outer loop
    vertex -5.79555495773441 1.5529142706151238 10.0
    vertex -5.196152422706632 2.9999999999999987 0.0
    vertex -5.196152422706632 2.9999999999999982 10.0
  endloop
endfacet
facet normal 0.7933533402912349 0.6087614290087209 2.7054584453258802e-17
  outer loop
    vertex -5.196152422706631 -3.0000000000000013 0.0
    vertex -4.242640687119285 -4.242640687119285 10.0
    vertex -4.242640687119285 -4.242640687119285 0.0
  endloop
endfacet
facet normal 0.7933533402912349 0.6087614290087209 2.7054584453258802e-17
  outer loop
    vertex -4.242640687119285 -4.242640687119285 10.0
    vertex -5.196152422706631 -3.0000000000000013 0.0
    vertex -5.196152422706631 -3.0000000000000004 10.0
  endloop
endfacet
facet normal 0.9914448613738105 -0.1305261922200518 6.9349969209530955e-19
  outer loop
    vertex -5.79555495773441 1.5529142706151238 0.0
    vertex -6.0 -3.6739403974420594e-16 10.0
    vertex -6.000000000000001 -4.523673446081737e-16 0.0
  endloop
endfacet
facet normal 0.9914448613738105 -0.1305261922200518 6.9349969209530955e-19
  outer loop
    vertex -6.0 -3.6739403974420594e-16 10.0
    vertex -5.79555495773441 1.5529142706151238 0.0
    vertex -5.79555495773441 1.5529142706151238 10.0
  endloop
endfacet
facet normal -0.0 -0.0 1.0
  outer loop
    vertex -28.92903404772005 -7.944242510513788 5.0
    vertex -29.025399647527426 7.584601195930819 5.0
    vertex -29.999422376922617 -0.1861640432395542 5.0
  endloop
endfacet
facet normal -0.0 -0.0 1.0
  outer loop
    vertex -29.025399647527426 7.584601195930819 5.0
    vertex -28.92903404772005 -7.944242510513788 5.0
    vertex -26.073343898894112 14.838488397744621 5.0
  endloop
endfacet
facet normal -0.0 -0.0 1.0
  outer loop
    vertex -26.073343898894112 14.838488397744621 5.0
    vertex -28.92903404772005 -7.944242510513788 5.0
    vertex -25.887179855654555 -15.16093397917798 5.0
  endloop
endfacet
facet normal -0.0 -0.0 1.0
  outer loop
    vertex -26.073343898894112 14.838488397744621 5.0
    vertex -25.887179855654555 -15.16093397917798 5.0
    vertex -21.344432851789236 21.08115713701364 5.0
  endloop
endfacet
facet normal -0.0 -0.0 1.0
  outer loop
    vertex -21.344432851789236 21.08115713701364 5.0
    vertex -25.887179855654555 -15.16093397917798 5.0
    vertex -21.08115713701364 -21.344432851789225 5.0
  endloop
endfacet
facet normal -0.0 -0.0 1.0
  outer loop
    vertex -21.344432851789236 21.08115713701364 5.0
    vertex -21.08115713701364 -21.344432851789225 5.0
    vertex -15.160933979177996 25.887179855654544 5.0
  endloop
endfacet
facet normal -0.0 -0.0 1.0
  outer loop
    vertex -15.160933979177996 25.887179855654544 5.0
    vertex -21.08115713701364 -21.344432851789225 5.0
    vertex -14.83848839774462 -26.07334389889411 5.0
  endloop
endfacet
facet normal -0.0 -0.0 1.0
  outer loop
    vertex -15.160933979177996 25.887179855654544 5.0
    vertex -14.83848839774462 -26.07334389889411 5.0
    vertex -15.0 -1.83697019872103e-15 5.0
  endloop
endfacet
facet normal -0.0 -0.0 1.0
  outer loop
    vertex -15.0 -1.83697019872103e-15 5.0
    vertex -14.83848839774462 -26.07334389889411 5.0
    vertex -14.488887394336025 -3.8822856765378155 5.0
  endloop
endfacet
facet normal -0.0 -0.0 1.0
  outer loop
    vertex -14.488887394336025 -3.8822856765378155 5.0
    vertex -14.83848839774462 -26.07334389889411 5.0
    vertex -7.584601195930825 -29.025399647527422 5.0
  endloop
endfacet
facet normal -0.0 -0.0 1.0
  outer loop
    vertex -14.488887394336025 -3.8822856765378155 5.0
    vertex -7.584601195930825 -29.025399647527422 5.0
    vertex -12.990381056766578 -7.500000000000006 5.0
  endloop
endfacet
facet normal -0.0 -0.0 1.0
  outer loop
    vertex -12.990381056766578 -7.500000000000006 5.0
    vertex -7.584601195930825 -29.025399647527422 5.0
    vertex -10.606601717798213 -10.606601717798213 5.0
  endloop
endfacet
facet normal -0.0 -0.0 1.0
  outer loop
    vertex -10.606601717798213 -10.606601717798213 5.0
    vertex -7.584601195930825 -29.025399647527422 5.0
    vertex -7.499999999999997 -12.990381056766582 5.0
  endloop
endfacet
facet normal -0.0 -0.0 1.0
  outer loop
    vertex -7.499999999999997 -12.990381056766582 5.0
    vertex -7.584601195930825 -29.025399647527422 5.0
    vertex 0.18616404323955704 -29.999422376922606 5.0
  endloop
endfacet
facet normal -0.0 -0.0 1.0
  outer loop
    vertex -7.499999999999997 -12.990381056766582 5.0
    vertex 0.18616404323955704 -29.999422376922606 5.0
    vertex -3.8822856765378098 -14.488887394336025 5.0
  endloop
endfacet
facet normal -0.0 -0.0 1.0
  outer loop
    vertex -3.8822856765378098 -14.488887394336025 5.0
    vertex 0.18616404323955704 -29.999422376922606 5.0
    vertex 9.18485099360515e-16 -15.0 5.0
  endloop
endfacet
facet normal -0.0 -0.0 1.0
  outer loop
    vertex 9.18485099360515e-16 -15.0 5.0
    vertex 0.18616404323955704 -29.999422376922606 5.0
    vertex 3.8822856765378146 -14.488887394336025 5.0
  endloop
endfacet
facet normal -0.0 -0.0 1.0
  outer loop
    vertex 3.8822856765378146 -14.488887394336025 5.0
    vertex 0.18616404323955704 -29.999422376922606 5.0
    vertex 7.944242510513783 -28.92903404772005 5.0
  endloop
endfacet
facet normal -0.0 -0.0 1.0
  outer loop
    vertex 3.8822856765378146 -14.488887394336025 5.0
    vertex 7.944242510513783 -28.92903404772005 5.0
    vertex 7.500000000000002 -12.990381056766578 5.0
  endloop
endfacet
facet normal -0.0 -0.0 1.0
  outer loop
    vertex 7.500000000000002 -12.990381056766578 5.0
    vertex 7.944242510513783 -28.92903404772005 5.0
    vertex 10.606601717798213 -10.606601717798213 5.0
  endloop
endfacet
facet normal -0.0 -0.0 1.0
  outer loop
    vertex 10.606601717798213 -10.606601717798213 5.0
    vertex 7.944242510513783 -28.92903404772005 5.0
    vertex 15.160933979177985 -25.887179855654555 5.0
  endloop
endfacet
facet normal -0.0 -0.0 1.0
  outer loop
    vertex 10.606601717798213 -10.606601717798213 5.0
    vertex 15.160933979177985 -25.887179855654555 5.0
    vertex 12.990381056766582 -7.499999999999999 5.0
  endloop
endfacet
facet normal -0.0 -0.0 1.0
  outer loop
    vertex 12.990381056766582 -7.499999999999999 5.0
    vertex 15.160933979177985 -25.887179855654555 5.0
    vertex 14.488887394336025 -3.882285676537811 5.0
  endloop
endfacet
facet normal -0.0 -0.0 1.0
  outer loop
    vertex 14.488887394336025 -3.882285676537811 5.0
    vertex 15.160933979177985 -25.887179855654555 5.0
    vertex 15.0 0.0 5.0
  endloop
endfacet
facet normal -0.0 -0.0 1.0
  outer loop
    vertex -15.160933979177996 25.887179855654544 5.0
    vertex -14.488887394336027 3.8822856765378058 5.0
    vertex -7.944242510513793 28.92903404772005 5.0
  endloop
endfacet
facet normal -0.0 -0.0 1.0
  outer loop
    vertex -14.488887394336027 3.8822856765378058 5.0
    vertex -15.160933979177996 25.887179855654544 5.0
    vertex -15.0 -1.83697019872103e-15 5.0
  endloop
endfacet
facet normal -0.0 -0.0 1.0
  outer loop
    vertex -7.944242510513793 28.92903404772005 5.0
    vertex -14.488887394336027 3.8822856765378058 5.0
    vertex -12.990381056766582 7.4999999999999964 5.0
  endloop
endfacet
facet normal -0.0 -0.0 1.0
  outer loop
    vertex -7.944242510513793 28.92903404772005 5.0
    vertex -12.990381056766582 7.4999999999999964 5.0
    vertex -10.60660171779822 10.606601717798206 5.0
  endloop
endfacet
facet normal -0.0 -0.0 1.0
  outer loop
    vertex -7.944242510513793 28.92903404772005 5.0
    vertex -10.60660171779822 10.606601717798206 5.0
    vertex -7.500000000000007 12.990381056766577 5.0
  endloop
endfacet
facet normal -0.0 -0.0 1.0
  outer loop
    vertex -7.944242510513793 28.92903404772005 5.0
    vertex -7.500000000000007 12.990381056766577 5.0
    vertex -0.18616404323956268 29.999422376922606 5.0
  endloop
endfacet
facet normal -0.0 -0.0 1.0
  outer loop
    vertex -0.18616404323956268 29.999422376922606 5.0
    vertex -7.500000000000007 12.990381056766577 5.0
    vertex -3.882285676537823 14.488887394336022 5.0
  endloop
endfacet
facet normal -0.0 -0.0 1.0
  outer loop
    vertex -0.18616404323956268 29.999422376922606 5.0
    vertex -3.882285676537823 14.488887394336022 5.0
    vertex -2.7554552980815448e-15 15.0 5.0
  endloop
endfacet
facet normal -0.0 -0.0 1.0
  outer loop
    vertex -0.18616404323956268 29.999422376922606 5.0
    vertex -2.7554552980815448e-15 15.0 5.0
    vertex 7.584601195930812 29.025399647527422 5.0
  endloop
endfacet
facet normal -0.0 -0.0 1.0
  outer loop
    vertex 7.584601195930812 29.025399647527422 5.0
    vertex -2.7554552980815448e-15 15.0 5.0
    vertex 3.882285676537805 14.488887394336027 5.0
  endloop
endfacet
facet normal -0.0 -0.0 1.0
  outer loop
    vertex 7.584601195930812 29.025399647527422 5.0
    vertex 3.882285676537805 14.488887394336027 5.0
    vertex 7.499999999999989 12.990381056766587 5.0
  endloop
endfacet
facet normal -0.0 -0.0 1.0
  outer loop
    vertex 7.584601195930812 29.025399647527422 5.0
    vertex 7.499999999999989 12.990381056766587 5.0
    vertex 10.606601717798211 10.606601717798215 5.0
  endloop
endfacet
facet normal -0.0 -0.0 1.0
  outer loop
    vertex 7.584601195930812 29.025399647527422 5.0
    vertex 10.606601717798211 10.606601717798215 5.0
    vertex 14.838488397744616 26.07334389889411 5.0
  endloop
endfacet
facet normal -0.0 -0.0 1.0
  outer loop
    vertex 14.838488397744616 26.07334389889411 5.0
    vertex 10.606601717798211 10.606601717798215 5.0
    vertex 12.990381056766577 7.500000000000007 5.0
  endloop
endfacet
facet normal -0.0 -0.0 1.0
  outer loop
    vertex 14.838488397744616 26.07334389889411 5.0
    vertex 12.990381056766577 7.500000000000007 5.0
    vertex 14.488887394336022 3.882285676537824 5.0
  endloop
endfacet
facet normal -0.0 -0.0 1.0
  outer loop
    vertex 14.838488397744616 26.07334389889411 5.0
    vertex 14.488887394336022 3.882285676537824 5.0
    vertex 15.0 0.0 5.0
  endloop
endfacet
facet normal -0.0 -0.0 1.0
  outer loop
    vertex 14.838488397744616 26.07334389889411 5.0
    vertex 15.0 0.0 5.0
    vertex 21.08115713701365 21.34443285178921 5.0
  endloop
endfacet
facet normal -0.0 -0.0 1.0
  outer loop
    vertex 21.08115713701365 21.34443285178921 5.0
    vertex 15.0 0.0 5.0
    vertex 15.160933979177985 -25.887179855654555 5.0
  endloop
endfacet
facet normal -0.0 -0.0 1.0
  outer loop
    vertex 21.08115713701365 21.34443285178921 5.0
    vertex 15.160933979177985 -25.887179855654555 5.0
    vertex 21.344432851789225 -21.08115713701365 5.0
  endloop
endfacet
facet normal -0.0 -0.0 1.0
  outer loop
    vertex 21.08115713701365 21.34443285178921 5.0
    vertex 21.344432851789225 -21.08115713701365 5.0
    vertex 25.887179855654555 15.160933979177976 5.0
  endloop
endfacet
facet normal -0.0 -0.0 1.0
  outer loop
    vertex 25.887179855654555 15.160933979177976 5.0
    vertex 21.344432851789225 -21.08115713701365 5.0
    vertex 26.073343898894112 -14.838488397744625 5.0
  endloop
endfacet
facet normal -0.0 -0.0 1.0
  outer loop
    vertex 25.887179855654555 15.160933979177976 5.0
    vertex 26.073343898894112 -14.838488397744625 5.0
    vertex 28.92903404772005 7.944242510513783 5.0
  endloop
endfacet
facet normal -0.0 -0.0 1.0
  outer loop
    vertex 28.92903404772005 7.944242510513783 5.0
    vertex 26.073343898894112 -14.838488397744625 5.0
    vertex 29.025399647527426 -7.584601195930831 5.0
  endloop
endfacet
facet normal -0.0 -0.0 1.0
  outer loop
    vertex 28.92903404772005 7.944242510513783 5.0
    vertex 29.025399647527426 -7.584601195930831 5.0
    vertex 29.999422376922606 0.18616404323953728 5.0
  endloop
endfacet
facet normal 0.9262364738749923 -0.37694295916440823 0.0
  outer loop
    vertex 29.025399647527426 -7.584601195930831 0.0
    vertex 26.073343898894112 -14.838488397744625 5.0
    vertex 26.073343898894112 -14.838488397744625 0.0
  endloop
endfacet
facet normal 0.9262364738749923 -0.37694295916440823 0.0
  outer loop
    vertex 26.073343898894112 -14.838488397744625 5.0
    vertex 29.025399647527426 -7.584601195930831 0.0
    vertex 29.025399647527426 -7.584601195930831 5.0
  endloop
endfacet
facet normal 0.6136728367052605 -0.7895604153515542 0.0
  outer loop
    vertex 21.344432851789225 -21.08115713701365 5.0
    vertex 15.160933979177985 -25.887179855654555 0.0
    vertex 21.344432851789225 -21.08115713701365 0.0
  endloop
endfacet
facet normal 0.6136728367052605 -0.7895604153515542 0.0
  outer loop
    vertex 15.160933979177985 -25.887179855654555 0.0
    vertex 21.344432851789225 -21.08115713701365 5.0
    vertex 15.160933979177985 -25.887179855654555 5.0
  endloop
endfacet
facet normal -0.38840916911364687 0.9214870142050003 0.0
  outer loop
    vertex -15.160933979177996 25.887179855654544 5.0
    vertex -7.944242510513793 28.92903404772005 0.0
    vertex -15.160933979177996 25.887179855654544 0.0
  endloop
endfacet
facet normal -0.38840916911364687 0.9214870142050003 0.0
  outer loop
    vertex -7.944242510513793 28.92903404772005 0.0
    vertex -15.160933979177996 25.887179855654544 5.0
    vertex -7.944242510513793 28.92903404772005 5.0
  endloop
endfacet
facet normal 0.6087614290087204 0.7933533402912355 0.0
  outer loop
    vertex 7.499999999999989 12.990381056766587 10.0
    vertex 10.606601717798211 10.606601717798215 5.0
    vertex 7.499999999999989 12.990381056766587 5.0
  endloop
endfacet
facet normal 0.6087614290087204 0.7933533402912355 0.0
  outer loop
    vertex 10.606601717798211 10.606601717798215 5.0
    vertex 7.499999999999989 12.990381056766587 10.0
    vertex 10.606601717798211 10.606601717798215 10.0
  endloop
endfacet
facet normal -0.37694295916440823 -0.9262364738749923 -0.0
  outer loop
    vertex -7.584601195930825 -29.025399647527422 5.0
    vertex -14.83848839774462 -26.07334389889411 0.0
    vertex -7.584601195930825 -29.025399647527422 0.0
  endloop
endfacet
facet normal -0.37694295916440823 -0.9262364738749923 -0.0
  outer loop
    vertex -14.83848839774462 -26.07334389889411 0.0
    vertex -7.584601195930825 -29.025399647527422 5.0
    vertex -14.83848839774462 -26.07334389889411 5.0
  endloop
endfacet
facet normal -0.12437129958727605 -0.9922357481158257 -0.0
  outer loop
    vertex 0.18616404323955704 -29.999422376922606 5.0
    vertex -7.584601195930825 -29.025399647527422 0.0
    vertex 0.18616404323955704 -29.999422376922606 0.0
  endloop
endfacet
facet normal -0.12437129958727605 -0.9922357481158257 -0.0
  outer loop
    vertex -7.584601195930825 -29.025399647527422 0.0
    vertex 0.18616404323955704 -29.999422376922606 5.0
    vertex -7.584601195930825 -29.025399647527422 5.0
  endloop
endfacet
facet normal -0.789560415351554 -0.613672836705261 -0.0
  outer loop
    vertex -25.887179855654555 -15.16093397917798 5.0
    vertex -21.08115713701364 -21.344432851789225 0.0
    vertex -21.08115713701364 -21.344432851789225 5.0
  endloop
endfacet
facet normal -0.789560415351554 -0.613672836705261 -0.0
  outer loop
    vertex -21.08115713701364 -21.344432851789225 0.0
    vertex -25.887179855654555 -15.16093397917798 5.0
    vertex -25.887179855654555 -15.16093397917798 0.0
  endloop
endfacet
facet normal -0.6038265790021791 -0.7971157146177245 -0.0
  outer loop
    vertex -14.83848839774462 -26.07334389889411 5.0
    vertex -21.08115713701364 -21.344432851789225 0.0
    vertex -14.83848839774462 -26.07334389889411 0.0
  endloop
endfacet
facet normal -0.6038265790021791 -0.7971157146177245 -0.0
  outer loop
    vertex -21.08115713701364 -21.344432851789225 0.0
    vertex -14.83848839774462 -26.07334389889411 5.0
    vertex -21.08115713701364 -21.344432851789225 5.0
  endloop
endfacet
facet normal -0.9214870142050007 -0.3884091691136462 -0.0
  outer loop
    vertex -28.92903404772005 -7.944242510513788 5.0
    vertex -25.887179855654555 -15.16093397917798 0.0
    vertex -25.887179855654555 -15.16093397917798 5.0
  endloop
endfacet
facet normal -0.9214870142050007 -0.3884091691136462 -0.0
  outer loop
    vertex -25.887179855654555 -15.16093397917798 0.0
    vertex -28.92903404772005 -7.944242510513788 5.0
    vertex -28.92903404772005 -7.944242510513788 0.0
  endloop
endfacet
facet normal -0.9906157958696689 -0.13667605852343903 -0.0
  outer loop
    vertex -29.999422376922617 -0.1861640432395542 5.0
    vertex -28.92903404772005 -7.944242510513788 0.0
    vertex -28.92903404772005 -7.944242510513788 5.0
  endloop
endfacet
facet normal -0.9906157958696689 -0.13667605852343903 -0.0
  outer loop
    vertex -28.92903404772005 -7.944242510513788 0.0
    vertex -29.999422376922617 -0.1861640432395542 5.0
    vertex -29.999422376922617 -0.1861640432395542 0.0
  endloop
endfacet
facet normal -0.9922357481158255 0.12437129958727688 0.0
  outer loop
    vertex -29.025399647527426 7.584601195930819 5.0
    vertex -29.999422376922617 -0.1861640432395542 0.0
    vertex -29.999422376922617 -0.1861640432395542 5.0
  endloop
endfacet
facet normal -0.9922357481158255 0.12437129958727688 0.0
  outer loop
    vertex -29.999422376922617 -0.1861640432395542 0.0
    vertex -29.025399647527426 7.584601195930819 5.0
    vertex -29.025399647527426 7.584601195930819 0.0
  endloop
endfacet
facet normal -0.9262364738749925 0.37694295916440795 0.0
  outer loop
    vertex -26.073343898894112 14.838488397744621 5.0
    vertex -29.025399647527426 7.584601195930819 0.0
    vertex -29.025399647527426 7.584601195930819 5.0
  endloop
endfacet
facet normal -0.9262364738749925 0.37694295916440795 0.0
  outer loop
    vertex -29.025399647527426 7.584601195930819 0.0
    vertex -26.073343898894112 14.838488397744621 5.0
    vertex -26.073343898894112 14.838488397744621 0.0
  endloop
endfacet
facet normal -0.7971157146177243 0.603826579002179 0.0
  outer loop
    vertex -21.344432851789236 21.08115713701364 5.0
    vertex -26.073343898894112 14.838488397744621 0.0
    vertex -26.073343898894112 14.838488397744621 5.0
  endloop
endfacet
facet normal -0.7971157146177243 0.603826579002179 0.0
  outer loop
    vertex -26.073343898894112 14.838488397744621 0.0
    vertex -21.344432851789236 21.08115713701364 5.0
    vertex -21.344432851789236 21.08115713701364 0.0
  endloop
endfacet
facet normal -0.6136728367052605 0.7895604153515542 0.0
  outer loop
    vertex -21.344432851789236 21.08115713701364 5.0
    vertex -15.160933979177996 25.887179855654544 0.0
    vertex -21.344432851789236 21.08115713701364 0.0
  endloop
endfacet
facet normal -0.6136728367052605 0.7895604153515542 0.0
  outer loop
    vertex -15.160933979177996 25.887179855654544 0.0
    vertex -21.344432851789236 21.08115713701364 5.0
    vertex -15.160933979177996 25.887179855654544 5.0
  endloop
endfacet
facet normal -0.13667605852343764 0.9906157958696691 0.0
  outer loop
    vertex -7.944242510513793 28.92903404772005 5.0
    vertex -0.18616404323956268 29.999422376922606 0.0
    vertex -7.944242510513793 28.92903404772005 0.0
  endloop
endfacet
facet normal -0.13667605852343764 0.9906157958696691 0.0
  outer loop
    vertex -0.18616404323956268 29.999422376922606 0.0
    vertex -7.944242510513793 28.92903404772005 5.0
    vertex -0.18616404323956268 29.999422376922606 5.0
  endloop
endfacet
facet normal 0.0 0.0 1.0
  outer loop
    vertex -7.499999999999997 -12.990381056766582 10.0
    vertex -5.79555495773441 -1.5529142706151258 10.0
    vertex -6.0 -3.6739403974420594e-16 10.0
  endloop
endfacet
facet normal 0.0 0.0 1.0
  outer loop
    vertex -5.79555495773441 -1.5529142706151258 10.0
    vertex -7.499999999999997 -12.990381056766582 10.0
    vertex -3.8822856765378098 -14.488887394336025 10.0
  endloop
endfacet
facet normal 0.0 0.0 1.0
  outer loop
    vertex -5.79555495773441 -1.5529142706151258 10.0
    vertex -3.8822856765378098 -14.488887394336025 10.0
    vertex -5.196152422706631 -3.0000000000000004 10.0
  endloop
endfacet
facet normal 0.0 0.0 1.0
  outer loop
    vertex -5.196152422706631 -3.0000000000000004 10.0
    vertex -3.8822856765378098 -14.488887394336025 10.0
    vertex -4.242640687119285 -4.242640687119285 10.0
  endloop
endfacet
facet normal 0.0 0.0 1.0
  outer loop
    vertex -4.242640687119285 -4.242640687119285 10.0
    vertex -3.8822856765378098 -14.488887394336025 10.0
    vertex -3.0 -5.196152422706631 10.0
  endloop
endfacet
facet normal 0.0 0.0 1.0
  outer loop
    vertex -3.0 -5.196152422706631 10.0
    vertex -3.8822856765378098 -14.488887394336025 10.0
    vertex 9.18485099360515e-16 -15.0 10.0
  endloop
endfacet
facet normal 0.0 0.0 1.0
  outer loop
    vertex -3.0 -5.196152422706631 10.0
    vertex 9.18485099360515e-16 -15.0 10.0
    vertex -1.5529142706151244 -5.79555495773441 10.0
  endloop
endfacet
facet normal 0.0 0.0 1.0
  outer loop
    vertex -1.5529142706151244 -5.79555495773441 10.0
    vertex 9.18485099360515e-16 -15.0 10.0
    vertex 0.0 -6.0 10.0
  endloop
endfacet
facet normal 0.0 0.0 1.0
  outer loop
    vertex 0.0 -6.0 10.0
    vertex 9.18485099360515e-16 -15.0 10.0
    vertex 1.5529142706151295 -5.795554957734408 10.0
  endloop
endfacet
facet normal 0.0 0.0 1.0
  outer loop
    vertex 1.5529142706151295 -5.795554957734408 10.0
    vertex 9.18485099360515e-16 -15.0 10.0
    vertex 3.8822856765378146 -14.488887394336025 10.0
  endloop
endfacet
facet normal 0.0 0.0 1.0
  outer loop
    vertex 1.5529142706151295 -5.795554957734408 10.0
    vertex 3.8822856765378146 -14.488887394336025 10.0
    vertex 3.000000000000003 -5.19615242270663 10.0
  endloop
endfacet
facet normal 0.0 0.0 1.0
  outer loop
    vertex 3.000000000000003 -5.19615242270663 10.0
    vertex 3.8822856765378146 -14.488887394336025 10.0
    vertex 4.2426406871192865 -4.242640687119284 10.0
  endloop
endfacet
facet normal 0.0 0.0 1.0
  outer loop
    vertex 4.2426406871192865 -4.242640687119284 10.0
    vertex 3.8822856765378146 -14.488887394336025 10.0
    vertex 7.500000000000002 -12.990381056766578 10.0
  endloop
endfacet
facet normal 0.0 0.0 1.0
  outer loop
    vertex 4.2426406871192865 -4.242640687119284 10.0
    vertex 7.500000000000002 -12.990381056766578 10.0
    vertex 5.196152422706635 -2.9999999999999956 10.0
  endloop
endfacet
facet normal 0.0 0.0 1.0
  outer loop
    vertex 5.196152422706635 -2.9999999999999956 10.0
    vertex 7.500000000000002 -12.990381056766578 10.0
    vertex 5.79555495773441 -1.5529142706151216 10.0
  endloop
endfacet
facet normal 0.0 0.0 1.0
  outer loop
    vertex 5.79555495773441 -1.5529142706151216 10.0
    vertex 7.500000000000002 -12.990381056766578 10.0
    vertex 6.0 1.1021821192326177e-15 10.0
  endloop
endfacet
facet normal 0.0 0.0 1.0
  outer loop
    vertex 6.0 1.1021821192326177e-15 10.0
    vertex 7.500000000000002 -12.990381056766578 10.0
    vertex 7.499999999999989 12.990381056766587 10.0
  endloop
endfacet
facet normal 0.0 0.0 1.0
  outer loop
    vertex 7.499999999999989 12.990381056766587 10.0
    vertex 7.500000000000002 -12.990381056766578 10.0
    vertex 10.606601717798211 10.606601717798215 10.0
  endloop
endfacet
facet normal 0.0 0.0 1.0
  outer loop
    vertex 10.606601717798211 10.606601717798215 10.0
    vertex 7.500000000000002 -12.990381056766578 10.0
    vertex 10.606601717798213 -10.606601717798213 10.0
  endloop
endfacet
facet normal 0.0 0.0 1.0
  outer loop
    vertex 10.606601717798211 10.606601717798215 10.0
    vertex 10.606601717798213 -10.606601717798213 10.0
    vertex 12.990381056766577 7.500000000000007 10.0
  endloop
endfacet
facet normal 0.0 0.0 1.0
  outer loop
    vertex 12.990381056766577 7.500000000000007 10.0
    vertex 10.606601717798213 -10.606601717798213 10.0
    vertex 12.990381056766582 -7.499999999999999 10.0
  endloop
endfacet
facet normal 0.0 0.0 1.0
  outer loop
    vertex 12.990381056766577 7.500000000000007 10.0
    vertex 12.990381056766582 -7.499999999999999 10.0
    vertex 14.488887394336022 3.882285676537824 10.0
  endloop
endfacet
facet normal 0.0 0.0 1.0
  outer loop
    vertex 14.488887394336022 3.882285676537824 10.0
    vertex 12.990381056766582 -7.499999999999999 10.0
    vertex 14.488887394336025 -3.882285676537811 10.0
  endloop
endfacet
facet normal 0.0 0.0 1.0
  outer loop
    vertex 14.488887394336022 3.882285676537824 10.0
    vertex 14.488887394336025 -3.882285676537811 10.0
    vertex 15.0 0.0 10.0
  endloop
endfacet
facet normal 0.0 0.0 1.0
  outer loop
    vertex -14.488887394336025 -3.8822856765378155 10.0
    vertex -14.488887394336027 3.8822856765378058 10.0
    vertex -15.0 -1.83697019872103e-15 10.0
  endloop
endfacet
facet normal 0.0 0.0 1.0
  outer loop
    vertex -14.488887394336027 3.8822856765378058 10.0
    vertex -14.488887394336025 -3.8822856765378155 10.0
    vertex -12.990381056766582 7.4999999999999964 10.0
  endloop
endfacet
facet normal 0.0 0.0 1.0
  outer loop
    vertex -12.990381056766582 7.4999999999999964 10.0
    vertex -14.488887394336025 -3.8822856765378155 10.0
    vertex -12.990381056766578 -7.500000000000006 10.0
  endloop
endfacet
facet normal 0.0 0.0 1.0
  outer loop
    vertex -12.990381056766582 7.4999999999999964 10.0
    vertex -12.990381056766578 -7.500000000000006 10.0
    vertex -10.60660171779822 10.606601717798206 10.0
  endloop
endfacet
facet normal 0.0 0.0 1.0
  outer loop
    vertex -10.60660171779822 10.606601717798206 10.0
    vertex -12.990381056766578 -7.500000000000006 10.0
    vertex -10.606601717798213 -10.606601717798213 10.0
  endloop
endfacet
facet normal 0.0 0.0 1.0
  outer loop
    vertex -10.60660171779822 10.606601717798206 10.0
    vertex -10.606601717798213 -10.606601717798213 10.0
    vertex -7.500000000000007 12.990381056766577 10.0
  endloop
endfacet
facet normal 0.0 0.0 1.0
  outer loop
    vertex -7.500000000000007 12.990381056766577 10.0
    vertex -10.606601717798213 -10.606601717798213 10.0
    vertex -7.499999999999997 -12.990381056766582 10.0
  endloop
endfacet
facet normal 0.0 0.0 1.0
  outer loop
    vertex -7.500000000000007 12.990381056766577 10.0
    vertex -7.499999999999997 -12.990381056766582 10.0
    vertex -6.0 -3.6739403974420594e-16 10.0
  endloop
endfacet
facet normal 0.0 0.0 1.0
  outer loop
    vertex -7.500000000000007 12.990381056766577 10.0
    vertex -6.0 -3.6739403974420594e-16 10.0
    vertex -5.79555495773441 1.5529142706151238 10.0
  endloop
endfacet
facet normal 0.0 0.0 1.0
  outer loop
    vertex -7.500000000000007 12.990381056766577 10.0
    vertex -5.79555495773441 1.5529142706151238 10.0
    vertex -3.882285676537823 14.488887394336022 10.0
  endloop
endfacet
facet normal 0.0 0.0 1.0
  outer loop
    vertex -3.882285676537823 14.488887394336022 10.0
    vertex -5.79555495773441 1.5529142706151238 10.0
    vertex -5.196152422706632 2.9999999999999982 10.0
  endloop
endfacet
facet normal 0.0 0.0 1.0
  outer loop
    vertex -3.882285676537823 14.488887394336022 10.0
    vertex -5.196152422706632 2.9999999999999982 10.0
    vertex -4.242640687119286 4.242640687119285 10.0
  endloop
endfacet
facet normal 0.0 0.0 1.0
  outer loop
    vertex -3.882285676537823 14.488887394336022 10.0
    vertex -4.242640687119286 4.242640687119285 10.0
    vertex -3.000000000000002 5.196152422706631 10.0
  endloop
endfacet
facet normal 0.0 0.0 1.0
  outer loop
    vertex -3.882285676537823 14.488887394336022 10.0
    vertex -3.000000000000002 5.196152422706631 10.0
    vertex -2.7554552980815448e-15 15.0 10.0
  endloop
endfacet
facet normal 0.0 0.0 1.0
  outer loop
    vertex -2.7554552980815448e-15 15.0 10.0
    vertex -3.000000000000002 5.196152422706631 10.0
    vertex -1.5529142706151262 5.795554957734409 10.0
  endloop
endfacet
facet normal 0.0 0.0 1.0
  outer loop
    vertex -2.7554552980815448e-15 15.0 10.0
    vertex -1.5529142706151262 5.795554957734409 10.0
    vertex -7.34788079488412e-16 6.0 10.0
  endloop
endfacet
facet normal 0.0 0.0 1.0
  outer loop
    vertex -2.7554552980815448e-15 15.0 10.0
    vertex -7.34788079488412e-16 6.0 10.0
    vertex 3.882285676537805 14.488887394336027 10.0
  endloop
endfacet
facet normal 0.0 0.0 1.0
  outer loop
    vertex 3.882285676537805 14.488887394336027 10.0
    vertex -7.34788079488412e-16 6.0 10.0
    vertex 1.5529142706151222 5.79555495773441 10.0
  endloop
endfacet
facet normal 0.0 0.0 1.0
  outer loop
    vertex 3.882285676537805 14.488887394336027 10.0
    vertex 1.5529142706151222 5.79555495773441 10.0
    vertex 2.9999999999999982 5.196152422706632 10.0
  endloop
endfacet
facet normal 0.0 0.0 1.0
  outer loop
    vertex 3.882285676537805 14.488887394336027 10.0
    vertex 2.9999999999999982 5.196152422706632 10.0
    vertex 4.242640687119283 4.242640687119287 10.0
  endloop
endfacet
facet normal 0.0 0.0 1.0
  outer loop
    vertex 3.882285676537805 14.488887394336027 10.0
    vertex 4.242640687119283 4.242640687119287 10.0
    vertex 7.499999999999989 12.990381056766587 10.0
  endloop
endfacet
facet normal 0.0 0.0 1.0
  outer loop
    vertex 7.499999999999989 12.990381056766587 10.0
    vertex 4.242640687119283 4.242640687119287 10.0
    vertex 5.196152422706631 3.0000000000000027 10.0
  endloop
endfacet
facet normal 0.0 0.0 1.0
  outer loop
    vertex 7.499999999999989 12.990381056766587 10.0
    vertex 5.196152422706631 3.0000000000000027 10.0
    vertex 5.795554957734409 1.552914270615129 10.0
  endloop
endfacet
facet normal 0.0 0.0 1.0
  outer loop
    vertex 7.499999999999989 12.990381056766587 10.0
    vertex 5.795554957734409 1.552914270615129 10.0
    vertex 6.0 1.1021821192326177e-15 10.0
  endloop
endfacet
facet normal 0.37694295916440784 0.9262364738749925 0.0
  outer loop
    vertex 7.584601195930812 29.025399647527422 5.0
    vertex 14.838488397744616 26.07334389889411 0.0
    vertex 7.584601195930812 29.025399647527422 0.0
  endloop
endfacet
facet normal 0.37694295916440784 0.9262364738749925 0.0
  outer loop
    vertex 14.838488397744616 26.07334389889411 0.0
    vertex 7.584601195930812 29.025399647527422 5.0
    vertex 14.838488397744616 26.07334389889411 5.0
  endloop
endfacet
facet normal 0.7971157146177241 -0.6038265790021794 0.0
  outer loop
    vertex 26.073343898894112 -14.838488397744625 0.0
    vertex 21.344432851789225 -21.08115713701365 5.0
    vertex 21.344432851789225 -21.08115713701365 0.0
  endloop
endfacet
facet normal 0.7971157146177241 -0.6038265790021794 0.0
  outer loop
    vertex 21.344432851789225 -21.08115713701365 5.0
    vertex 26.073343898894112 -14.838488397744625 0.0
    vertex 26.073343898894112 -14.838488397744625 5.0
  endloop
endfacet
facet normal 0.12437129958727616 0.9922357481158257 0.0
  outer loop
    vertex -0.18616404323956268 29.999422376922606 5.0
    vertex 7.584601195930812 29.025399647527422 0.0
    vertex -0.18616404323956268 29.999422376922606 0.0
  endloop
endfacet
facet normal 0.12437129958727616 0.9922357481158257 0.0
  outer loop
    vertex 7.584601195930812 29.025399647527422 0.0
    vertex -0.18616404323956268 29.999422376922606 5.0
    vertex 7.584601195930812 29.025399647527422 5.0
  endloop
endfacet
facet normal 0.3884091691136457 -0.9214870142050008 0.0
  outer loop
    vertex 15.160933979177985 -25.887179855654555 5.0
    vertex 7.944242510513783 -28.92903404772005 0.0
    vertex 15.160933979177985 -25.887179855654555 0.0
  endloop
endfacet
facet normal 0.3884091691136457 -0.9214870142050008 0.0
  outer loop
    vertex 7.944242510513783 -28.92903404772005 0.0
    vertex 15.160933979177985 -25.887179855654555 5.0
    vertex 7.944242510513783 -28.92903404772005 5.0
  endloop
endfacet
facet normal 0.13667605852343773 -0.9906157958696691 0.0
  outer loop
    vertex 7.944242510513783 -28.92903404772005 5.0
    vertex 0.18616404323955704 -29.999422376922606 0.0
    vertex 7.944242510513783 -28.92903404772005 0.0
  endloop
endfacet
facet normal 0.13667605852343773 -0.9906157958696691 0.0
  outer loop
    vertex 0.18616404323955704 -29.999422376922606 0.0
    vertex 7.944242510513783 -28.92903404772005 5.0
    vertex 0.18616404323955704 -29.999422376922606 5.0
  endloop
endfacet
facet normal 0.7933533402912349 0.608761429008721 0.0
  outer loop
    vertex 10.606601717798211 10.606601717798215 5.0
    vertex 12.990381056766577 7.500000000000007 10.0
    vertex 12.990381056766577 7.500000000000007 5.0
  endloop
endfacet
facet normal 0.7933533402912349 0.608761429008721 0.0
  outer loop
    vertex 12.990381056766577 7.500000000000007 10.0
    vertex 10.606601717798211 10.606601717798215 5.0
    vertex 10.606601717798211 10.606601717798215 10.0
  endloop
endfacet
facet normal 0.0 0.0 -1.0
  outer loop
    vertex -29.025399647527426 7.584601195930819 0.0
    vertex -28.92903404772005 -7.944242510513788 0.0
    vertex -29.999422376922617 -0.1861640432395542 0.0
  endloop
endfacet
facet normal 0.0 0.0 -1.0
  outer loop
    vertex -28.92903404772005 -7.944242510513788 0.0
    vertex -29.025399647527426 7.584601195930819 0.0
    vertex -26.073343898894112 14.838488397744621 0.0
  endloop
endfacet
facet normal 0.0 0.0 -1.0
  outer loop
    vertex -28.92903404772005 -7.944242510513788 0.0
    vertex -26.073343898894112 14.838488397744621 0.0
    vertex -25.887179855654555 -15.16093397917798 0.0
  endloop
endfacet
facet normal 0.0 0.0 -1.0
  outer loop
    vertex -25.887179855654555 -15.16093397917798 0.0
    vertex -26.073343898894112 14.838488397744621 0.0
    vertex -21.344432851789236 21.08115713701364 0.0
  endloop
endfacet
facet normal 0.0 0.0 -1.0
  outer loop
    vertex -25.887179855654555 -15.16093397917798 0.0
    vertex -21.344432851789236 21.08115713701364 0.0
    vertex -21.08115713701364 -21.344432851789225 0.0
  endloop
endfacet
facet normal 0.0 0.0 -1.0
  outer loop
    vertex -21.08115713701364 -21.344432851789225 0.0
    vertex -21.344432851789236 21.08115713701364 0.0
    vertex -15.160933979177996 25.887179855654544 0.0
  endloop
endfacet
facet normal 0.0 0.0 -1.0
  outer loop
    vertex -21.08115713701364 -21.344432851789225 0.0
    vertex -15.160933979177996 25.887179855654544 0.0
    vertex -14.83848839774462 -26.07334389889411 0.0
  endloop
endfacet
facet normal 0.0 0.0 -1.0
  outer loop
    vertex -14.83848839774462 -26.07334389889411 0.0
    vertex -15.160933979177996 25.887179855654544 0.0
    vertex -7.944242510513793 28.92903404772005 0.0
  endloop
endfacet
facet normal 0.0 0.0 -1.0
  outer loop
    vertex -14.83848839774462 -26.07334389889411 0.0
    vertex -7.944242510513793 28.92903404772005 0.0
    vertex -7.584601195930825 -29.025399647527422 0.0
  endloop
endfacet
facet normal 0.0 0.0 -1.0
  outer loop
    vertex -7.584601195930825 -29.025399647527422 0.0
    vertex -7.944242510513793 28.92903404772005 0.0
    vertex -6.000000000000001 -4.523673446081737e-16 0.0
  endloop
endfacet
facet normal 0.0 0.0 -1.0
  outer loop
    vertex -6.000000000000001 -4.523673446081737e-16 0.0
    vertex -7.944242510513793 28.92903404772005 0.0
    vertex -5.79555495773441 1.5529142706151238 0.0
  endloop
endfacet
facet normal 0.0 0.0 -1.0
  outer loop
    vertex -5.79555495773441 1.5529142706151238 0.0
    vertex -7.944242510513793 28.92903404772005 0.0
    vertex -0.18616404323956268 29.999422376922606 0.0
  endloop
endfacet
facet normal 0.0 0.0 -1.0
  outer loop
    vertex -5.79555495773441 1.5529142706151238 0.0
    vertex -0.18616404323956268 29.999422376922606 0.0
    vertex -5.196152422706632 2.9999999999999987 0.0
  endloop
endfacet
facet normal 0.0 0.0 -1.0
  outer loop
    vertex -5.196152422706632 2.9999999999999987 0.0
    vertex -0.18616404323956268 29.999422376922606 0.0
    vertex -4.2426406871192865 4.242640687119284 0.0
  endloop
endfacet
facet normal 0.0 0.0 -1.0
  outer loop
    vertex -4.2426406871192865 4.242640687119284 0.0
    vertex -0.18616404323956268 29.999422376922606 0.0
    vertex -3.000000000000002 5.19615242270663 0.0
  endloop
endfacet
facet normal 0.0 0.0 -1.0
  outer loop
    vertex -3.000000000000002 5.19615242270663 0.0
    vertex -0.18616404323956268 29.999422376922606 0.0
    vertex -1.5529142706151262 5.79555495773441 0.0
  endloop
endfacet
facet normal 0.0 0.0 -1.0
  outer loop
    vertex -1.5529142706151262 5.79555495773441 0.0
    vertex -0.18616404323956268 29.999422376922606 0.0
    vertex -7.222694311578073e-16 6.0 0.0
  endloop
endfacet
facet normal 0.0 0.0 -1.0
  outer loop
    vertex -7.222694311578073e-16 6.0 0.0
    vertex -0.18616404323956268 29.999422376922606 0.0
    vertex 7.584601195930812 29.025399647527422 0.0
  endloop
endfacet
facet normal 0.0 0.0 -1.0
  outer loop
    vertex -7.222694311578073e-16 6.0 0.0
    vertex 7.584601195930812 29.025399647527422 0.0
    vertex 1.552914270615122 5.79555495773441 0.0
  endloop
endfacet
facet normal 0.0 0.0 -1.0
  outer loop
    vertex 1.552914270615122 5.79555495773441 0.0
    vertex 7.584601195930812 29.025399647527422 0.0
    vertex 2.9999999999999996 5.196152422706632 0.0
  endloop
endfacet
facet normal 0.0 0.0 -1.0
  outer loop
    vertex 2.9999999999999996 5.196152422706632 0.0
    vertex 7.584601195930812 29.025399647527422 0.0
    vertex 4.242640687119283 4.242640687119287 0.0
  endloop
endfacet
facet normal 0.0 0.0 -1.0
  outer loop
    vertex 4.242640687119283 4.242640687119287 0.0
    vertex 7.584601195930812 29.025399647527422 0.0
    vertex 5.19615242270663 3.0000000000000036 0.0
  endloop
endfacet
facet normal 0.0 0.0 -1.0
  outer loop
    vertex 5.19615242270663 3.0000000000000036 0.0
    vertex 7.584601195930812 29.025399647527422 0.0
    vertex 5.79555495773441 1.552914270615129 0.0
  endloop
endfacet
facet normal 0.0 0.0 -1.0
  outer loop
    vertex 5.79555495773441 1.552914270615129 0.0
    vertex 7.584601195930812 29.025399647527422 0.0
    vertex 6.0 1.0834041467367103e-15 0.0
  endloop
endfacet
facet normal 0.0 0.0 -1.0
  outer loop
    vertex -7.584601195930825 -29.025399647527422 0.0
    vertex -5.79555495773441 -1.552914270615126 0.0
    vertex 0.18616404323955704 -29.999422376922606 0.0
  endloop
endfacet
facet normal 0.0 0.0 -1.0
  outer loop
    vertex -5.79555495773441 -1.552914270615126 0.0
    vertex -7.584601195930825 -29.025399647527422 0.0
    vertex -6.000000000000001 -4.523673446081737e-16 0.0
  endloop
endfacet
facet normal 0.0 0.0 -1.0
  outer loop
    vertex 0.18616404323955704 -29.999422376922606 0.0
    vertex -5.79555495773441 -1.552914270615126 0.0
    vertex -5.196152422706631 -3.0000000000000013 0.0
  endloop
endfacet
facet normal 0.0 0.0 -1.0
  outer loop
    vertex 0.18616404323955704 -29.999422376922606 0.0
    vertex -5.196152422706631 -3.0000000000000013 0.0
    vertex -4.242640687119285 -4.242640687119285 0.0
  endloop
endfacet
facet normal 0.0 0.0 -1.0
  outer loop
    vertex 0.18616404323955704 -29.999422376922606 0.0
    vertex -4.242640687119285 -4.242640687119285 0.0
    vertex -2.9999999999999996 -5.196152422706631 0.0
  endloop
endfacet
facet normal 0.0 0.0 -1.0
  outer loop
    vertex 0.18616404323955704 -29.999422376922606 0.0
    vertex -2.9999999999999996 -5.196152422706631 0.0
    vertex -1.5529142706151242 -5.795554957734409 0.0
  endloop
endfacet
facet normal 0.0 0.0 -1.0
  outer loop
    vertex 0.18616404323955704 -29.999422376922606 0.0
    vertex -1.5529142706151242 -5.795554957734409 0.0
    vertex 0.0 -6.0 0.0
  endloop
endfacet
facet normal 0.0 0.0 -1.0
  outer loop
    vertex 0.18616404323955704 -29.999422376922606 0.0
    vertex 0.0 -6.0 0.0
    vertex 1.5529142706151298 -5.795554957734408 0.0
  endloop
endfacet
facet normal 0.0 0.0 -1.0
  outer loop
    vertex 0.18616404323955704 -29.999422376922606 0.0
    vertex 1.5529142706151298 -5.795554957734408 0.0
    vertex 7.944242510513783 -28.92903404772005 0.0
  endloop
endfacet
facet normal 0.0 0.0 -1.0
  outer loop
    vertex 7.944242510513783 -28.92903404772005 0.0
    vertex 1.5529142706151298 -5.795554957734408 0.0
    vertex 3.000000000000003 -5.196152422706629 0.0
  endloop
endfacet
facet normal 0.0 0.0 -1.0
  outer loop
    vertex 7.944242510513783 -28.92903404772005 0.0
    vertex 3.000000000000003 -5.196152422706629 0.0
    vertex 4.242640687119286 -4.242640687119286 0.0
  endloop
endfacet
facet normal 0.0 0.0 -1.0
  outer loop
    vertex 7.944242510513783 -28.92903404772005 0.0
    vertex 4.242640687119286 -4.242640687119286 0.0
    vertex 5.196152422706634 -2.999999999999997 0.0
  endloop
endfacet
facet normal 0.0 0.0 -1.0
  outer loop
    vertex 7.944242510513783 -28.92903404772005 0.0
    vertex 5.196152422706634 -2.999999999999997 0.0
    vertex 5.79555495773441 -1.5529142706151216 0.0
  endloop
endfacet
facet normal 0.0 0.0 -1.0
  outer loop
    vertex 7.944242510513783 -28.92903404772005 0.0
    vertex 5.79555495773441 -1.5529142706151216 0.0
    vertex 6.0 1.0834041467367103e-15 0.0
  endloop
endfacet
facet normal 0.0 0.0 -1.0
  outer loop
    vertex 7.944242510513783 -28.92903404772005 0.0
    vertex 6.0 1.0834041467367103e-15 0.0
    vertex 7.584601195930812 29.025399647527422 0.0
  endloop
endfacet
facet normal 0.0 0.0 -1.0
  outer loop
    vertex 7.944242510513783 -28.92903404772005 0.0
    vertex 7.584601195930812 29.025399647527422 0.0
    vertex 14.838488397744616 26.07334389889411 0.0
  endloop
endfacet
facet normal 0.0 0.0 -1.0
  outer loop
    vertex 7.944242510513783 -28.92903404772005 0.0
    vertex 14.838488397744616 26.07334389889411 0.0
    vertex 15.160933979177985 -25.887179855654555 0.0
  endloop
endfacet
facet normal 0.0 0.0 -1.0
  outer loop
    vertex 15.160933979177985 -25.887179855654555 0.0
    vertex 14.838488397744616 26.07334389889411 0.0
    vertex 21.08115713701365 21.34443285178921 0.0
  endloop
endfacet
facet normal 0.0 0.0 -1.0
  outer loop
    vertex 15.160933979177985 -25.887179855654555 0.0
    vertex 21.08115713701365 21.34443285178921 0.0
    vertex 21.344432851789225 -21.08115713701365 0.0
  endloop
endfacet
facet normal 0.0 0.0 -1.0
  outer loop
    vertex 21.344432851789225 -21.08115713701365 0.0
    vertex 21.08115713701365 21.34443285178921 0.0
    vertex 25.887179855654555 15.160933979177976 0.0
  endloop
endfacet
facet normal 0.0 0.0 -1.0
  outer loop
    vertex 21.344432851789225 -21.08115713701365 0.0
    vertex 25.887179855654555 15.160933979177976 0.0
    vertex 26.073343898894112 -14.838488397744625 0.0
  endloop
endfacet
facet normal 0.0 0.0 -1.0
  outer loop
    vertex 26.073343898894112 -14.838488397744625 0.0
    vertex 25.887179855654555 15.160933979177976 0.0
    vertex 28.92903404772005 7.944242510513783 0.0
  endloop
endfacet
facet normal 0.0 0.0 -1.0
  outer loop
    vertex 26.073343898894112 -14.838488397744625 0.0
    vertex 28.92903404772005 7.944242510513783 0.0
    vertex 29.025399647527426 -7.584601195930831 0.0
  endloop
endfacet
facet normal 0.0 0.0 -1.0
  outer loop
    vertex 29.025399647527426 -7.584601195930831 0.0
    vertex 28.92903404772005 7.944242510513783 0.0
    vertex 29.999422376922606 0.18616404323953728 0.0
  endloop
endfacet
facet normal 0.9214870142050007 0.38840916911364615 0.0
  outer loop
    vertex 25.887179855654555 15.160933979177976 0.0
    vertex 28.92903404772005 7.944242510513783 5.0
    vertex 28.92903404772005 7.944242510513783 0.0
  endloop
endfacet
facet normal 0.9214870142050007 0.38840916911364615 0.0
  outer loop
    vertex 28.92903404772005 7.944242510513783 5.0
    vertex 25.887179855654555 15.160933979177976 0.0
    vertex 25.887179855654555 15.160933979177976 5.0
  endloop
endfacet
facet normal 0.789560415351554 0.6136728367052606 0.0
  outer loop
    vertex 21.08115713701365 21.34443285178921 0.0
    vertex 25.887179855654555 15.160933979177976 5.0
    vertex 25.887179855654555 15.160933979177976 0.0
  endloop
endfacet
facet normal 0.789560415351554 0.6136728367052606 0.0
  outer loop
    vertex 25.887179855654555 15.160933979177976 5.0
    vertex 21.08115713701365 21.34443285178921 0.0
    vertex 21.08115713701365 21.34443285178921 5.0
  endloop
endfacet
facet normal 0.6038265790021793 0.7971157146177242 0.0
  outer loop
    vertex 14.838488397744616 26.07334389889411 5.0
    vertex 21.08115713701365 21.34443285178921 0.0
    vertex 14.838488397744616 26.07334389889411 0.0
  endloop
endfacet
facet normal 0.6038265790021793 0.7971157146177242 0.0
  outer loop
    vertex 21.08115713701365 21.34443285178921 0.0
    vertex 14.838488397744616 26.07334389889411 5.0
    vertex 21.08115713701365 21.34443285178921 5.0
  endloop
endfacet
facet normal 0.9922357481158256 -0.12437129958727554 0.0
  outer loop
    vertex 29.999422376922606 0.18616404323953728 0.0
    vertex 29.025399647527426 -7.584601195930831 5.0
    vertex 29.025399647527426 -7.584601195930831 0.0
  endloop
endfacet
facet normal 0.9922357481158256 -0.12437129958727554 0.0
  outer loop
    vertex 29.025399647527426 -7.584601195930831 5.0
    vertex 29.999422376922606 0.18616404323953728 0.0
    vertex 29.999422376922606 0.18616404323953728 5.0
  endloop
endfacet
facet normal 0.9906157958696692 0.1366760585234374 0.0
  outer loop
    vertex 28.92903404772005 7.944242510513783 0.0
    vertex 29.999422376922606 0.18616404323953728 5.0
    vertex 29.999422376922606 0.18616404323953728 0.0
  endloop
endfacet
facet normal 0.9906157958696692 0.1366760585234374 0.0
  outer loop
    vertex 29.999422376922606 0.18616404323953728 5.0
    vertex 28.92903404772005 7.944242510513783 0.0
    vertex 28.92903404772005 7.944242510513783 5.0
  endloop
endfacet
endsolid Untitled-56fc2950
